<?xml version="1.0" encoding="iso-8859-1"?>
<!-- Generator: Adobe Illustrator 17.1.0, SVG Export Plug-In . SVG Version: 6.00 Build 0)  -->
<!DOCTYPE svg PUBLIC "-//W3C//DTD SVG 1.1//EN" "http://www.w3.org/Graphics/SVG/1.1/DTD/svg11.dtd">
<svg version="1.1" id="Layer_1" xmlns="http://www.w3.org/2000/svg" xmlns:xlink="http://www.w3.org/1999/xlink" x="0px" y="0px"
	 viewBox="0 0 254.307 285.539" style="fill:#4ebfcf;enable-background:new 0 0 254.307 285.539;" xml:space="preserve">
<g>
	<path d="M155.075,95.246c18.722,4.833,32.89,20.271,36.089,39.33c0.367,2.178,2.254,3.723,4.395,3.723
		c0.245,0,0.493-0.02,0.744-0.063c2.432-0.409,4.071-2.71,3.663-5.138c-3.785-22.529-20.53-40.778-42.663-46.489
		c-2.388-0.618-4.82,0.817-5.435,3.205C151.255,92.196,152.689,94.63,155.075,95.246L155.075,95.246z M155.075,95.246"/>
	<path d="M75.081,235.695c3.368-3.371,5.226-7.854,5.226-12.619c0-3.24-0.86-6.35-2.467-9.068l14.574-14.574
		c13.403,11.924,31.047,19.182,50.356,19.182c41.821,0,75.846-34.025,75.846-75.846s-34.025-75.846-75.846-75.846
		s-75.847,34.025-75.847,75.846c0,19.309,7.257,36.95,19.182,50.355l-14.577,14.574c-2.717-1.609-5.824-2.47-9.065-2.47
		c-4.768,0-9.251,1.857-12.619,5.228L5.228,255.072C1.857,258.443,0,262.923,0,267.691c0,4.765,1.857,9.248,5.228,12.619
		c3.477,3.48,8.047,5.217,12.619,5.217c4.569,0,9.138-1.737,12.618-5.217L75.081,235.695L75.081,235.695L75.081,235.695z
		 M142.769,75.846c36.9,0,66.923,30.022,66.923,66.923c0,36.9-30.023,66.923-66.923,66.923c-36.901,0-66.923-30.023-66.923-66.923
		C75.846,105.868,105.868,75.846,142.769,75.846L142.769,75.846z M68.771,229.385l-44.615,44.615c-3.48,3.48-9.141,3.477-12.621,0
		c-1.683-1.686-2.611-3.927-2.611-6.31s0.929-4.624,2.611-6.31l44.615-44.615c1.686-1.686,3.927-2.614,6.31-2.614
		c2.386,0,4.626,0.929,6.312,2.614c1.686,1.686,2.611,3.927,2.611,6.31C71.383,225.459,70.457,227.7,68.771,229.385L68.771,229.385z
		 M68.771,229.385"/>
	<path d="M254.286,62.021c-0.008-0.066-0.019-0.125-0.028-0.188c-0.013-0.082-0.022-0.163-0.038-0.245
		c-0.014-0.074-0.036-0.144-0.052-0.215c-0.02-0.071-0.033-0.139-0.055-0.207c-0.022-0.07-0.046-0.139-0.07-0.21
		c-0.024-0.068-0.049-0.136-0.077-0.204c-0.027-0.062-0.057-0.125-0.086-0.188c-0.033-0.071-0.063-0.139-0.101-0.207
		c-0.033-0.06-0.068-0.117-0.103-0.177c-0.038-0.066-0.077-0.133-0.12-0.199c-0.044-0.063-0.09-0.123-0.137-0.183
		c-0.04-0.054-0.079-0.112-0.125-0.166c-0.084-0.103-0.174-0.201-0.267-0.3c-0.011-0.008-0.019-0.019-0.027-0.027L195.001,1.307
		c0,0-0.003-0.003-0.006-0.006c-0.139-0.139-0.289-0.264-0.447-0.384c-0.036-0.027-0.07-0.054-0.109-0.082
		c-0.158-0.114-0.321-0.218-0.496-0.31c-0.011-0.008-0.024-0.014-0.038-0.019c-0.163-0.085-0.332-0.158-0.506-0.224
		c-0.036-0.013-0.071-0.027-0.107-0.038c-0.188-0.066-0.379-0.12-0.574-0.158c-0.006-0.003-0.01-0.003-0.016-0.003
		c-0.183-0.036-0.368-0.057-0.556-0.07c-0.049-0.003-0.101-0.006-0.153-0.008c-0.049,0-0.098-0.006-0.15-0.006H44.615
		c-7.38,0-13.384,6.004-13.384,13.384v191.845c0,2.465,1.996,4.464,4.46,4.464c2.464,0,4.464-1.999,4.464-4.464V13.384
		c0-2.459,2.001-4.46,4.46-4.46h142.769v44.615c0,7.38,6.004,13.384,13.384,13.384h26.768c2.465,0,4.464-1.999,4.464-4.46
		c0-2.465-1.999-4.464-4.464-4.464h-26.768c-2.459,0-4.46-2.001-4.46-4.46V15.233l49.075,49.075v207.843
		c0,2.462-2.001,4.464-4.46,4.464H49.078c-2.464,0-4.46,1.996-4.46,4.46c0,2.464,1.996,4.464,4.46,4.464h191.845
		c7.38,0,13.384-6.005,13.384-13.387V62.463C254.307,62.316,254.299,62.168,254.286,62.021L254.286,62.021z M254.286,62.021"/>
	<path d="M182.921,142.769c0-2.464-1.996-4.464-4.46-4.464H89.23c-2.464,0-4.46,1.999-4.46,4.464c0,2.464,1.996,4.46,4.46,4.46
		h89.23C180.925,147.229,182.921,145.234,182.921,142.769L182.921,142.769z M182.921,142.769"/>
	<path d="M187.384,160.613h-84.77c-2.464,0-4.46,1.999-4.46,4.464c0,2.464,1.996,4.46,4.46,4.46h84.77c2.464,0,4.46-1.996,4.46-4.46
		C191.845,162.613,189.849,160.613,187.384,160.613L187.384,160.613z M187.384,160.613"/>
	<path d="M102.614,124.922h66.923c2.464,0,4.464-1.996,4.464-4.46c0-2.464-1.999-4.464-4.464-4.464h-66.923
		c-2.464,0-4.46,1.999-4.46,4.464C98.154,122.926,100.15,124.922,102.614,124.922L102.614,124.922z M102.614,124.922"/>
</g>
</svg>
