<?xml version="1.0" encoding="iso-8859-1"?>
<!-- Generator: Adobe Illustrator 17.1.0, SVG Export Plug-In . SVG Version: 6.00 Build 0)  -->
<!DOCTYPE svg PUBLIC "-//W3C//DTD SVG 1.1//EN" "http://www.w3.org/Graphics/SVG/1.1/DTD/svg11.dtd">
<svg version="1.1" id="Layer_1" xmlns="http://www.w3.org/2000/svg" xmlns:xlink="http://www.w3.org/1999/xlink" x="0px" y="0px"
	 viewBox="0 0 75.086 75.086" style="fill:#4ebfcf; enable-background:new 0 0 75.086 75.086;" xml:space="preserve">
<g>
	<path d="M70.816,4.27C67.969,1.422,64.527,0,60.484,0H14.602C10.559,0,7.113,1.422,4.27,4.27C1.422,7.117,0,10.559,0,14.602v45.883
		c0,3.996,1.422,7.429,4.27,10.296c2.843,2.872,6.289,4.305,10.332,4.305h45.886c4.039,0,7.481-1.433,10.328-4.305
		c2.848-2.867,4.27-6.3,4.27-10.296V14.602C75.086,10.559,73.66,7.117,70.816,4.27L70.816,4.27z M66.742,60.488
		c0,1.739-0.609,3.215-1.824,4.43c-1.215,1.219-2.695,1.824-4.434,1.824H14.602c-1.739,0-3.215-0.605-4.434-1.824
		c-1.215-1.215-1.824-2.691-1.824-4.43V14.602c0-1.739,0.609-3.215,1.824-4.434c1.215-1.215,2.695-1.824,4.434-1.824h45.886
		c1.739,0,3.215,0.609,4.43,1.824c1.215,1.219,1.824,2.695,1.824,4.434V60.488z M66.742,60.488"/>
	<path d="M56.316,33.371H41.715V18.774c0-0.61-0.195-1.11-0.586-1.5c-0.391-0.391-0.891-0.586-1.5-0.586h-4.172
		c-0.609,0-1.105,0.195-1.496,0.586c-0.395,0.39-0.59,0.89-0.59,1.5v14.597H18.773c-0.609,0-1.109,0.196-1.5,0.586
		c-0.39,0.391-0.585,0.891-0.585,1.5v4.172c0,0.609,0.195,1.109,0.585,1.5c0.391,0.391,0.891,0.586,1.5,0.586h14.598v14.598
		c0,0.609,0.195,1.109,0.59,1.5c0.391,0.39,0.891,0.586,1.496,0.586h4.172c0.609,0,1.109-0.196,1.5-0.586
		c0.391-0.391,0.586-0.891,0.586-1.5V41.715h14.601c0.606,0,1.106-0.195,1.496-0.586c0.391-0.391,0.586-0.891,0.586-1.5v-4.172
		c0-0.609-0.195-1.109-0.586-1.5C57.422,33.567,56.922,33.371,56.316,33.371L56.316,33.371z M56.316,33.371"/>
</g>
</svg>
