<?xml version="1.0" encoding="iso-8859-1"?>
<!-- Generator: Adobe Illustrator 17.1.0, SVG Export Plug-In . SVG Version: 6.00 Build 0)  -->
<!DOCTYPE svg PUBLIC "-//W3C//DTD SVG 1.1//EN" "http://www.w3.org/Graphics/SVG/1.1/DTD/svg11.dtd">
<svg version="1.1" id="Layer_1" xmlns="http://www.w3.org/2000/svg" xmlns:xlink="http://www.w3.org/1999/xlink" x="0px" y="0px"
	 viewBox="0 0 55.109 48.922" style="enable-background:new 0 0 55.109 48.922;" xml:space="preserve">
<g>
	<path style="fill:#9db1c0;" d="M47.605,7.942h-10.09L34.883,1.44C34.535,0.573,33.691,0,32.757,0H22.374c-0.934,0-1.777,0.562-2.126,1.44l-2.632,6.502
		H7.514C3.364,7.942,0,11.316,0,15.456v25.951c0,4.151,3.375,7.515,7.514,7.515h40.08c4.151,0,7.515-3.375,7.515-7.515V15.456
		C55.12,11.316,51.745,7.942,47.605,7.942L47.605,7.942z M23.915,4.59h7.29l1.35,3.341H22.554L23.915,4.59z M50.53,41.407
		c0,1.609-1.316,2.925-2.925,2.925H7.514c-1.609,0-2.925-1.316-2.925-2.925V15.456c0-1.609,1.316-2.925,2.925-2.925h40.08
		c1.609,0,2.925,1.316,2.925,2.925v25.951H50.53z M50.53,41.407"/>
	<path style="fill:#9db1c0;" d="M27.56,15.884c-6.918,0-12.554,5.635-12.554,12.553c0,6.93,5.636,12.554,12.554,12.554s12.554-5.636,12.554-12.554
		C40.114,21.508,34.478,15.884,27.56,15.884L27.56,15.884z M27.56,36.401c-4.387,0-7.964-3.577-7.964-7.964
		c0-4.387,3.577-7.964,7.964-7.964s7.964,3.577,7.964,7.964C35.524,32.825,31.947,36.401,27.56,36.401L27.56,36.401z M27.56,36.401"
		/>
</g>
</svg>
