<?xml version="1.0" encoding="utf-8"?>
<!-- Generator: Adobe Illustrator 17.1.0, SVG Export Plug-In . SVG Version: 6.00 Build 0)  -->
<!DOCTYPE svg PUBLIC "-//W3C//DTD SVG 1.1//EN" "http://www.w3.org/Graphics/SVG/1.1/DTD/svg11.dtd">
<svg version="1.1" id="Layer_1" xmlns="http://www.w3.org/2000/svg" xmlns:xlink="http://www.w3.org/1999/xlink" x="0px" y="0px"
	 viewBox="0 0 26.5 26.6" enable-background="new 0 0 26.5 26.6" xml:space="preserve">
<g>
	<g>
		<path fill="#4FBFCF" d="M22.6,3.9C20.1,1.4,16.8,0,13.2,0S6.4,1.4,3.9,3.9C-0.9,8.7-1.3,16.5,3,21.7c-0.4,0.7-1,1.7-2,2.2
			c-0.5,0.3-0.9,0.9-0.8,1.5c0.1,0.6,0.6,1.1,1.2,1.2c0.3,0.1,0.7,0.1,1.1,0.1c1.1,0,2.9-0.3,4.6-1.5c1.9,1,4,1.5,6.2,1.5
			c3.6,0,6.9-1.4,9.4-3.9c2.5-2.5,3.9-5.8,3.9-9.4C26.5,9.7,25.1,6.4,22.6,3.9z M4.8,21.9c0.1-0.2,0.1-0.4,0.1-0.6
			c0-0.2-0.1-0.4-0.2-0.5c-4-4.5-3.8-11.4,0.5-15.7c2.2-2.2,5-3.4,8.1-3.4c3.1,0,5.9,1.2,8.1,3.4c2.2,2.2,3.4,5,3.4,8.1
			c0,3.1-1.2,5.9-3.4,8.1c-2.2,2.2-5,3.4-8.1,3.4c-2,0-4-0.5-5.8-1.6C7.3,23.1,7.1,23,7,23c-0.2,0-0.5,0.1-0.6,0.2c0,0-0.1,0-0.1,0
			c-1.2,1-2.5,1.3-3.4,1.4C3.9,23.9,4.5,22.8,4.8,21.9z"/>
		<circle fill="#4FBFCF" cx="13.2" cy="13.3" r="1.1"/>
		<circle fill="#4FBFCF" cx="18" cy="13.3" r="1.1"/>
		<circle fill="#4FBFCF" cx="8.5" cy="13.3" r="1.1"/>
	</g>
</g>
</svg>
