<?xml version="1.0" encoding="utf-8"?>
<!-- Generator: Adobe Illustrator 17.1.0, SVG Export Plug-In . SVG Version: 6.00 Build 0)  -->
<!DOCTYPE svg PUBLIC "-//W3C//DTD SVG 1.1//EN" "http://www.w3.org/Graphics/SVG/1.1/DTD/svg11.dtd">
<svg version="1.1" id="Layer_1" xmlns="http://www.w3.org/2000/svg" xmlns:xlink="http://www.w3.org/1999/xlink" x="0px" y="0px"
	 viewBox="0 0 26.3 26.3" enable-background="new 0 0 26.3 26.3" xml:space="preserve">
<g>
	<path fill="#4FBFCF" d="M15.2,18.9c-0.8-0.4-2.1-1-2.4-1.3c1.3-1.6,2.1-3.4,2.1-5c0-1.1,0-2.4-0.6-3.6c-0.5-1.1-1.8-2.4-4.5-2.4
		c-2.7,0-3.9,1.3-4.5,2.4c-0.6,1.2-0.6,2.5-0.6,3.6c0,1.6,0.8,3.4,2.1,5c-0.3,0.3-1.6,0.9-2.4,1.3c-1.5,0.8-2.5,1.3-3.1,1.9
		C0.1,22,0,24.2,0,24.6c0,0.4,0.2,0.9,0.5,1.2c0.3,0.3,0.7,0.5,1.2,0.5h16.4c0.4,0,0.9-0.2,1.2-0.5c0.3-0.3,0.5-0.7,0.5-1.2
		c0-0.4-0.1-2.6-1.4-3.9C17.7,20.2,16.8,19.6,15.2,18.9L15.2,18.9z M1.6,24.6c0-0.7,0.2-2,0.9-2.7C3,21.5,3.9,21,5.2,20.3
		c1.5-0.8,2.4-1.2,2.8-1.6l1.1-1l-1-1.2c-1.1-1.3-1.7-2.8-1.7-4c0-1,0-2,0.4-2.9c0.5-1,1.5-1.5,3-1.5s2.5,0.5,3,1.5
		c0.4,0.8,0.4,1.9,0.4,2.9c0,1.2-0.6,2.6-1.7,4l-1,1.2l1.1,1c0.4,0.4,1.2,0.8,2.8,1.6c1.3,0.7,2.3,1.1,2.7,1.5
		c0.7,0.7,0.9,2,0.9,2.7L1.6,24.6z M24.9,14.2c-0.6-0.6-1.6-1.1-3.1-1.9c-0.8-0.4-2.1-1-2.4-1.3c1.3-1.6,2.1-3.4,2.1-5
		c0-1.1,0-2.4-0.6-3.6C20.3,1.3,19.1,0,16.4,0c-2.7,0-3.9,1.3-4.5,2.4c-0.6,1.1-0.6,2.4-0.6,3.4H13c0-0.9,0-1.9,0.4-2.6
		c0.5-1,1.5-1.5,3-1.5c1.5,0,2.5,0.5,3,1.5C19.8,3.9,19.8,5,19.8,6c0,1.2-0.6,2.6-1.7,4l-1,1.2l1.1,1c0.4,0.4,1.2,0.8,2.8,1.6
		c1.3,0.7,2.3,1.1,2.7,1.5c0.7,0.7,0.9,2,0.9,2.7h-7.4l2.5,1.6h4.9c0.4,0,0.9-0.2,1.2-0.5c0.3-0.3,0.5-0.7,0.5-1.2
		C26.3,17.6,26.2,15.5,24.9,14.2L24.9,14.2z M24.9,14.2"/>
</g>
</svg>
