<?xml version="1.0" encoding="utf-8"?>
<!-- Generator: Adobe Illustrator 17.1.0, SVG Export Plug-In . SVG Version: 6.00 Build 0)  -->
<!DOCTYPE svg PUBLIC "-//W3C//DTD SVG 1.1//EN" "http://www.w3.org/Graphics/SVG/1.1/DTD/svg11.dtd">
<svg version="1.1" id="Layer_1" xmlns="http://www.w3.org/2000/svg" xmlns:xlink="http://www.w3.org/1999/xlink" x="0px" y="0px"
	 viewBox="0 0 27.2 26.6" enable-background="new 0 0 27.2 26.6" xml:space="preserve">
<g>
	<path fill="#4FBFCF" d="M17.4,16.4c-0.4,0-0.8,0.4-0.8,0.8v3.4c0,1.2-1,2.2-2.2,2.2H9.1c-0.4,0-0.8,0.4-0.8,0.8v0.2l-0.6-0.6
		C7.6,23,7.3,22.8,7,22.8H3.8c-1.2,0-2.2-1-2.2-2.2V13c0-1.2,1-2.2,2.2-2.2h5c0.4,0,0.8-0.4,0.8-0.8c0-0.4-0.4-0.8-0.8-0.8h-5
		C1.7,9.2,0,10.9,0,13v7.6c0,2.1,1.7,3.8,3.8,3.8h2.8l1.9,1.9c0.1,0.1,0.4,0.2,0.6,0.2c0.1,0,0.2,0,0.3-0.1c0.3-0.1,0.5-0.4,0.5-0.7
		l0-1.4h4.5c2.1,0,3.8-1.7,3.8-3.8v-3.4C18.2,16.8,17.9,16.4,17.4,16.4z"/>
	<path fill="#4FBFCF" d="M19.7,0h-1.3C14.3,0,11,3.4,11,7.5c0,4.1,3.4,7.5,7.5,7.5h1.3c0.6,0,1.2-0.1,1.7-0.2l1.7,1.7
		c0.1,0.1,0.4,0.2,0.6,0.2c0.1,0,0.2,0,0.3-0.1c0.3-0.1,0.5-0.4,0.5-0.7v-2.7c0.8-0.6,1.4-1.4,1.9-2.3c0.5-1.1,0.8-2.2,0.8-3.4
		C27.2,3.4,23.8,0,19.7,0z M25.6,7.5c0,1.9-0.9,3.6-2.4,4.7c-0.2,0.2-0.3,0.4-0.3,0.6V14l-0.7-0.7c-0.1-0.1-0.4-0.2-0.6-0.2
		c-0.1,0-0.2,0-0.2,0c-0.6,0.2-1.1,0.3-1.7,0.3h-1.3c-3.3,0-5.9-2.6-5.9-5.9c0-3.2,2.6-5.9,5.9-5.9h1.3C23,1.6,25.6,4.3,25.6,7.5z"
		/>
	<path fill="#4FBFCF" d="M19.4,3.5c-0.7,0-1.3,0.2-1.8,0.6c-0.5,0.5-0.8,1.1-0.8,1.8c0,0.4,0.4,0.8,0.8,0.8c0.4,0,0.8-0.4,0.8-0.8
		c0-0.2,0.1-0.4,0.3-0.6c0.1-0.1,0.3-0.2,0.6-0.2c0,0,0,0,0,0c0.4,0,0.7,0.3,0.7,0.7c0,0.4-0.2,0.7-0.6,0.8c-0.6,0.1-1,0.6-1,1.2
		v1.2c0,0.4,0.4,0.8,0.8,0.8S20,9.5,20,9.1V8.1c1-0.4,1.7-1.3,1.6-2.4C21.5,4.5,20.6,3.6,19.4,3.5z"/>
	<path fill="#4FBFCF" d="M18.7,10.4c-0.1,0.1-0.2,0.4-0.2,0.6c0,0.2,0.1,0.4,0.2,0.6c0.1,0.1,0.4,0.2,0.6,0.2c0.2,0,0.4-0.1,0.6-0.2
		c0.2-0.1,0.2-0.4,0.2-0.6c0-0.2-0.1-0.4-0.2-0.6C19.5,10.1,18.9,10.1,18.7,10.4z"/>
	<path fill="#4FBFCF" d="M14.6,16H4.2c-0.4,0-0.8,0.4-0.8,0.8s0.4,0.8,0.8,0.8h10.4c0.4,0,0.8-0.4,0.8-0.8S15.1,16,14.6,16z"/>
	<path fill="#4FBFCF" d="M4.2,18.7c-0.4,0-0.8,0.4-0.8,0.8c0,0.4,0.4,0.8,0.8,0.8h8.5c0.4,0,0.8-0.4,0.8-0.8c0-0.4-0.4-0.8-0.8-0.8
		H4.2z"/>
	<path fill="#4FBFCF" d="M11.4,13.2H4.2c-0.4,0-0.8,0.4-0.8,0.8c0,0.4,0.4,0.8,0.8,0.8h7.2c0.4,0,0.8-0.4,0.8-0.8
		C12.2,13.5,11.9,13.2,11.4,13.2z"/>
</g>
</svg>
