<?xml version="1.0" encoding="iso-8859-1"?>
<!-- Generator: Adobe Illustrator 17.1.0, SVG Export Plug-In . SVG Version: 6.00 Build 0)  -->
<!DOCTYPE svg PUBLIC "-//W3C//DTD SVG 1.1//EN" "http://www.w3.org/Graphics/SVG/1.1/DTD/svg11.dtd">
<svg version="1.1" id="Layer_1" xmlns="http://www.w3.org/2000/svg" xmlns:xlink="http://www.w3.org/1999/xlink" x="0px" y="0px"
	 viewBox="0 0 84.801 19.273" style="enable-background:new 0 0 84.801 19.273;" xml:space="preserve">
<g>
	<path d="M19.273,9.637c0,5.322-4.315,9.636-9.636,9.636C4.315,19.273,0,14.958,0,9.637C0,4.315,4.315,0,9.637,0
		C14.958,0,19.273,4.315,19.273,9.637L19.273,9.637z M19.273,9.637"/>
	<path d="M52.037,9.637c0,5.322-4.315,9.636-9.637,9.636c-5.322,0-9.637-4.315-9.637-9.636C32.764,4.315,37.079,0,42.401,0
		C47.723,0,52.037,4.315,52.037,9.637L52.037,9.637z M52.037,9.637"/>
	<path d="M84.801,9.637c0,5.322-4.315,9.636-9.637,9.636c-5.322,0-9.637-4.315-9.637-9.636C65.528,4.315,69.843,0,75.165,0
		C80.487,0,84.801,4.315,84.801,9.637L84.801,9.637z M84.801,9.637"/>
</g>
</svg>
