<?xml version="1.0" encoding="iso-8859-1"?>
<!-- Generator: Adobe Illustrator 17.1.0, SVG Export Plug-In . SVG Version: 6.00 Build 0)  -->
<!DOCTYPE svg PUBLIC "-//W3C//DTD SVG 1.1//EN" "http://www.w3.org/Graphics/SVG/1.1/DTD/svg11.dtd">
<svg version="1.1" id="Layer_1" xmlns="http://www.w3.org/2000/svg" xmlns:xlink="http://www.w3.org/1999/xlink" x="0px" y="0px"
	 viewBox="0 0 43.458 43.458" style="enable-background:new 0 0 43.458 43.458;" xml:space="preserve">
<g>
	<path style="fill:#4EBFCF;" d="M21.729,10.829c-3.494,0-6.341,2.847-6.341,6.341c0,2.865,1.915,5.295,4.523,6.075v9.392c0,1.003,0.807,1.809,1.809,1.809
		c1.002,0,1.809-0.807,1.809-1.809v-9.401c2.617-0.781,4.523-3.211,4.523-6.075C28.07,13.667,25.223,10.829,21.729,10.829
		L21.729,10.829z M21.729,19.884c-1.499,0-2.714-1.215-2.714-2.714c0-1.499,1.215-2.714,2.714-2.714
		c1.499,0,2.714,1.215,2.714,2.714C24.443,18.66,23.228,19.884,21.729,19.884L21.729,19.884z M21.729,19.884"/>
	<path style="fill:#4EBFCF;" d="M21.729,0C9.747,0,0,9.747,0,21.729s9.747,21.729,21.729,21.729s21.729-9.747,21.729-21.729S33.71,0,21.729,0L21.729,0z
		 M21.729,39.839c-9.986,0-18.11-8.124-18.11-18.11s8.124-18.11,18.11-18.11s18.11,8.124,18.11,18.11S31.715,39.839,21.729,39.839
		L21.729,39.839z M21.729,39.839"/>
</g>
</svg>
