<?xml version="1.0" encoding="iso-8859-1"?>
<!-- Generator: Adobe Illustrator 17.1.0, SVG Export Plug-In . SVG Version: 6.00 Build 0)  -->
<!DOCTYPE svg PUBLIC "-//W3C//DTD SVG 1.1//EN" "http://www.w3.org/Graphics/SVG/1.1/DTD/svg11.dtd">
<svg version="1.1" id="Layer_1" xmlns="http://www.w3.org/2000/svg" xmlns:xlink="http://www.w3.org/1999/xlink" x="0px" y="0px"
	 viewBox="0 0 25.601 25.602" style="enable-background:new 0 0 25.601 25.602;" xml:space="preserve">
<path style="fill:#4EBFCF;fill-rule:evenodd;clip-rule:evenodd;" d="M23.421,16.027l-4.145-2.129c-1.015-0.523-2.328-0.343-3.172,0.43
	L15.62,14.77c-0.469,0.433-1.199,0.531-1.769,0.238c-1.414-0.727-2.547-1.86-3.274-3.27c-0.301-0.578-0.203-1.289,0.238-1.769
	l0.446-0.485c0.476-0.515,0.738-1.187,0.738-1.89c0-0.442-0.109-0.883-0.312-1.278L9.554,2.172C8.866,0.832,7.499,0,5.995,0
	C5.112,0,4.272,0.281,3.573,0.82L2.311,1.781c-1.98,1.508-2.792,4.114-2.027,6.481c2.555,7.883,8.75,14.238,16.567,17.004
	c0.628,0.222,1.289,0.336,1.96,0.336c1.567,0,3.09-0.637,4.188-1.75l1.445-1.457c0.746-0.754,1.157-1.754,1.157-2.809
	C25.601,18.082,24.765,16.719,23.421,16.027L23.421,16.027z M22.733,20.707l-1.441,1.461c-0.926,0.937-2.395,1.277-3.641,0.836
	c-7.117-2.52-12.757-8.305-15.082-15.481c-0.457-1.402,0.028-2.945,1.2-3.836L5.03,2.723c0.278-0.211,0.614-0.325,0.965-0.325
	c0.602,0,1.149,0.332,1.426,0.872L9.55,7.414c0.031,0.055,0.047,0.117,0.047,0.18c0,0.129-0.059,0.218-0.106,0.269L9.046,8.348
	c-1.117,1.214-1.359,3.019-0.602,4.488c0.957,1.859,2.446,3.344,4.305,4.305c1.445,0.742,3.301,0.492,4.496-0.602l0.484-0.445
	c0.079-0.074,0.282-0.149,0.45-0.063l4.148,2.129c0.539,0.277,0.871,0.824,0.871,1.426C23.198,20.008,23.034,20.406,22.733,20.707
	L22.733,20.707z M22.733,20.707"/>
</svg>
