<?xml version="1.0" encoding="utf-8"?>
<!-- Generator: Adobe Illustrator 17.1.0, SVG Export Plug-In . SVG Version: 6.00 Build 0)  -->
<!DOCTYPE svg PUBLIC "-//W3C//DTD SVG 1.1//EN" "http://www.w3.org/Graphics/SVG/1.1/DTD/svg11.dtd">
<svg version="1.1" id="Layer_1" xmlns="http://www.w3.org/2000/svg" xmlns:xlink="http://www.w3.org/1999/xlink" x="0px" y="0px"
	 viewBox="0 0 22.7 26.6" enable-background="new 0 0 22.7 26.6" xml:space="preserve">
<g>
	<path fill="#4FBFCF" d="M11.2,14.5h0.2h0c1.6,0,3-0.6,4-1.7c2.1-2.4,1.8-6.5,1.7-6.9c-0.1-3-1.6-4.4-2.7-5.1
		c-0.9-0.5-1.9-0.8-3-0.8h-0.1c-0.6,0-1.8,0.1-3,0.8C7.1,1.4,5.7,2.9,5.5,5.8c0,0.5-0.4,4.5,1.7,6.9C8.3,13.9,9.6,14.4,11.2,14.5z
		 M11.3,12.7c-1.2,0-2-0.4-2.7-1.1C6.9,9.7,7.3,6.1,7.3,6l0,0c0.2-3.8,2.8-4.2,4-4.2h0.1c1.4,0,3.8,0.6,4,4.2c0,0,0,0,0,0.1
		c0,0.3,0.3,3.7-1.3,5.5C13.4,12.3,12.5,12.7,11.3,12.7L11.3,12.7z"/>
	<path fill="#4FBFCF" d="M22.6,21C22.6,21,22.6,20.9,22.6,21l0-0.1c0-1.1-0.1-3.7-2.6-4.5l-0.1,0c-2.4-0.6-4.4-2-4.5-2
		c-0.4-0.3-1-0.2-1.2,0.2c-0.1,0.2-0.2,0.4-0.1,0.7c0,0.2,0.2,0.4,0.4,0.6c0.2,0.2,2.4,1.6,5,2.3c1.2,0.4,1.3,1.7,1.3,2.9
		c0,0.1,0,0.1,0,0.1c0,0.5,0,1.2-0.1,1.6c-1,0.6-4.3,2.2-9.4,2.2c-5.1,0-8.4-1.6-9.4-2.2c-0.1-0.4-0.1-1.1-0.1-1.6l0-0.1
		c0,0,0-0.1,0-0.1c0-1.2,0.2-2.5,1.3-2.9c2.4-0.6,4.4-1.9,5-2.3c0.2-0.1,0.3-0.3,0.4-0.6c0-0.2,0-0.5-0.1-0.7
		c-0.3-0.4-0.9-0.5-1.2-0.2c0,0-2,1.4-4.5,2c0,0-0.1,0-0.1,0C0.1,17.1,0,19.7,0,20.9c0,0,0,0.1,0,0.1c0,0.2,0,1.7,0.3,2.5
		c0.1,0.2,0.2,0.3,0.3,0.4c0,0,4,2.6,10.7,2.6c6.4,0,10.3-2.4,10.7-2.6c0.2-0.1,0.3-0.3,0.3-0.4C22.7,22.7,22.7,21.2,22.6,21z"/>
</g>
</svg>
