<?xml version="1.0" encoding="iso-8859-1"?>
<!-- Generator: Adobe Illustrator 17.1.0, SVG Export Plug-In . SVG Version: 6.00 Build 0)  -->
<!DOCTYPE svg PUBLIC "-//W3C//DTD SVG 1.1//EN" "http://www.w3.org/Graphics/SVG/1.1/DTD/svg11.dtd">
<svg version="1.1" id="Layer_1" xmlns="http://www.w3.org/2000/svg" xmlns:xlink="http://www.w3.org/1999/xlink" x="0px" y="0px"
	 viewBox="0 0 70.901 40.123" style="enable-background:new 0 0 70.901 40.123;" xml:space="preserve">
<path style="fill:#44678d;" d="M13.446,27.591c2.74,3.711,5.888,6.99,9.946,9.312c4.602,2.634,9.558,3.424,14.78,3.178
	c2.442-0.111,3.178-0.75,3.289-3.183c0.08-1.667,0.267-3.323,1.087-4.819c0.806-1.471,2.03-1.752,3.44-0.837
	c0.705,0.459,1.294,1.038,1.859,1.653c1.374,1.506,2.7,3.057,4.129,4.512c1.788,1.823,3.913,2.895,6.577,2.674l10.328,0.005
	c1.662-0.111,2.528-2.15,1.572-4.004c-0.674-1.303-1.556-2.462-2.488-3.585c-2.109-2.528-4.592-4.689-6.943-6.985
	c-2.121-2.069-2.256-3.268-0.549-5.65c1.858-2.608,3.862-5.112,5.736-7.704c1.752-2.427,3.545-4.845,4.467-7.745
	c0.584-1.849,0.066-2.663-1.828-2.986c-0.322-0.055-0.66-0.061-0.993-0.061l-11.234-0.01c-1.386-0.026-2.15,0.579-2.639,1.807
	c-0.66,1.657-1.339,3.314-2.131,4.91c-1.782,3.63-3.776,7.136-6.571,10.102c-0.62,0.655-1.3,1.48-2.332,1.142
	c-1.289-0.473-1.667-2.598-1.646-3.313l-0.01-12.967C41.038,1.189,40.629,0.362,38.791,0H27.119c-1.556,0-2.337,0.605-3.168,1.577
	c-0.478,0.563-0.625,0.931,0.362,1.118c1.934,0.367,3.027,1.622,3.313,3.561c0.469,3.107,0.433,6.219,0.166,9.336
	c-0.08,0.906-0.236,1.818-0.594,2.663c-0.563,1.334-1.475,1.606-2.674,0.786c-1.083-0.741-1.844-1.793-2.589-2.845
	c-2.8-3.954-5.03-8.219-6.853-12.701c-0.529-1.294-1.435-2.08-2.805-2.1C8.904,1.339,5.535,1.334,2.165,1.4
	C0.136,1.435-0.468,2.422,0.358,4.261C4.03,12.424,8.114,20.365,13.446,27.591z"/>
</svg>
