<?xml version="1.0" encoding="iso-8859-1"?>
<!-- Generator: Adobe Illustrator 17.1.0, SVG Export Plug-In . SVG Version: 6.00 Build 0)  -->
<!DOCTYPE svg PUBLIC "-//W3C//DTD SVG 1.1//EN" "http://www.w3.org/Graphics/SVG/1.1/DTD/svg11.dtd">
<svg version="1.1" id="OBJECTS" xmlns="http://www.w3.org/2000/svg" xmlns:xlink="http://www.w3.org/1999/xlink" x="0px" y="0px"
	 viewBox="0 0 109.347 93.069" style="enable-background:new 0 0 109.347 93.069;" xml:space="preserve">
<g>
	<g>
		<linearGradient id="SVGID_1_" gradientUnits="userSpaceOnUse" x1="8.3463" y1="1.744" x2="8.3463" y2="101.869">
			<stop  offset="0" style="stop-color:#4ECECF"/>
			<stop  offset="1" style="stop-color:#4E98CF"/>
		</linearGradient>
		<path style="fill:url(#SVGID_1_);" d="M16.333,53.948l0.36,6.859h-0.784c-0.065-0.718-0.261-2.874-1.274-4.279
			c-1.111-1.568-2.646-1.927-4.344-1.927H6.174v9.44h2.091c0.653,0,2.189,0.065,3.005-1.764c0.294-0.653,0.457-1.535,0.523-2.156
			h0.653v8.559h-0.653c0-0.196-0.065-1.339-0.49-2.287c-0.653-1.535-1.829-1.699-2.842-1.699H6.174v9.996h2.515v0.653H0v-0.653
			h2.515v-20.09H0v-0.653H16.333z"/>
		<linearGradient id="SVGID_2_" gradientUnits="userSpaceOnUse" x1="27.7913" y1="1.744" x2="27.7913" y2="101.869">
			<stop  offset="0" style="stop-color:#4ECECF"/>
			<stop  offset="1" style="stop-color:#4E98CF"/>
		</linearGradient>
		<path style="fill:url(#SVGID_2_);" d="M19.886,57.541c2.091-2.679,5.26-3.953,7.905-3.953s5.815,1.274,7.905,3.953
			c1.437,1.862,2.385,4.345,2.385,7.089c0,2.776-0.948,5.227-2.385,7.089c-2.45,3.169-5.88,3.985-7.905,3.985
			s-5.455-0.817-7.905-3.985c-1.437-1.862-2.384-4.312-2.384-7.089C17.501,61.885,18.449,59.403,19.886,57.541z M22.303,70.444
			c1.078,3.234,3.528,4.639,5.488,4.639s4.41-1.405,5.488-4.639c0.555-1.666,0.686-3.594,0.686-5.815
			c0-2.222-0.131-4.181-0.686-5.815c-1.078-3.201-3.528-4.606-5.488-4.606s-4.41,1.405-5.488,4.606
			c-0.556,1.633-0.686,3.593-0.686,5.815C21.617,66.85,21.748,68.778,22.303,70.444z"/>
		<linearGradient id="SVGID_3_" gradientUnits="userSpaceOnUse" x1="48.7251" y1="1.744" x2="48.7251" y2="101.869">
			<stop  offset="0" style="stop-color:#4ECECF"/>
			<stop  offset="1" style="stop-color:#4E98CF"/>
		</linearGradient>
		<path style="fill:url(#SVGID_3_);" d="M47.255,53.948c3.267,0,5.194,0.261,6.533,0.98c0.784,0.425,2.417,1.536,2.417,3.789
			c0,1.568-0.588,2.711-1.601,3.528c-1.47,1.176-3.757,1.601-5.096,1.699v0.131c0.817,0.131,1.96,0.425,3.136,0.98
			c2.352,1.143,2.548,2.646,2.744,4.345c0.359,2.94,0.359,3.626,0.621,4.377c0.131,0.326,0.294,0.751,0.816,0.751
			c0.588,0,1.437-0.784,1.731-1.11l0.49,0.522c-1.241,1.699-2.483,1.764-3.463,1.764c-0.882,0-2.124-0.131-2.973-1.241
			c-0.686-0.948-0.784-2.45-0.915-3.692c-0.261-2.384-0.425-4.704-1.568-5.684c-0.784-0.653-1.927-0.719-2.907-0.719h-2.646v10.323
			h2.515v0.653h-8.689v-0.653h2.515v-20.09h-2.515v-0.653H47.255z M46.863,63.714c1.405,0,3.038-0.163,4.214-1.437
			c0.817-0.882,1.013-1.927,1.013-3.593c0-1.47-0.359-2.776-1.568-3.462c-0.849-0.49-2.744-0.621-3.463-0.621h-2.483v9.114H46.863z"
			/>
	</g>
	<linearGradient id="SVGID_4_" gradientUnits="userSpaceOnUse" x1="10.1485" y1="1.744" x2="10.1485" y2="101.869">
		<stop  offset="0" style="stop-color:#4ECECF"/>
		<stop  offset="1" style="stop-color:#4E98CF"/>
	</linearGradient>
	<path style="fill:url(#SVGID_4_);" d="M18.114,28.929c-1.631-1.265-4.099-1.854-7.765-1.854H0v1.956h2.581v17.491H0v1.956h11.173
		v-1.956H8.592v-6.647h2.186c1.415,0,4.925-0.142,6.948-1.452c2.125-1.349,2.571-3.344,2.571-4.78
		C20.297,32.341,20.07,30.435,18.114,28.929z M8.592,29.031h1.203c1.256,0,2.555,0,3.256,0.725c0.544,0.567,0.59,1.416,0.59,2.168
		v2.181c0,0.959,0,2.047-0.466,2.733c-0.707,0.999-2.147,1.082-3.686,1.082H8.592V29.031z"/>
	<linearGradient id="SVGID_5_" gradientUnits="userSpaceOnUse" x1="30.0909" y1="1.744" x2="30.0909" y2="101.869">
		<stop  offset="0" style="stop-color:#4ECECF"/>
		<stop  offset="1" style="stop-color:#4E98CF"/>
	</linearGradient>
	<path style="fill:url(#SVGID_5_);" d="M33.465,35.107l-4.356-1.717c-0.207-0.084-0.402-0.156-0.59-0.224
		c-0.539-0.197-0.965-0.352-1.415-0.743c-0.51-0.441-0.7-0.859-0.7-1.543c0-0.711,0.181-1.13,0.638-1.487
		c0.637-0.484,1.539-0.546,2.255-0.546c1.098,0,2.393,0.193,3.669,1.629c0.694,0.781,1.347,1.961,1.745,3.156l0.146,0.438h1.839
		v-6.994h-1.993l-0.183,0.166c-0.238,0.217-0.616,0.386-0.86,0.386c-0.237,0-0.553-0.135-0.952-0.307l-0.254-0.108
		c-0.93-0.372-1.979-0.568-3.033-0.568c-1.782,0-3.363,0.504-4.567,1.453c-2.09,1.6-2.401,3.989-2.401,5.27
		c0,1.352,0.406,2.568,1.202,3.608c1.017,1.368,2.345,2.01,3.504,2.456l3.657,1.445c1.939,0.762,3.311,1.438,3.311,3.214
		c0,0.77-0.412,1.533-1.067,1.987c-0.618,0.412-1.494,0.63-2.533,0.63c-1.755,0-3.011-0.756-3.476-1.085
		c-0.695-0.481-1.373-1.221-1.907-2.082c-0.733-1.195-1.091-2.466-1.226-2.945l-0.158-0.555h-1.871l0.145,8.438h2.1l0.186-0.314
		c0.233-0.395,0.563-0.454,0.739-0.454c0.244,0,0.56,0.106,1.189,0.318l0.657,0.221c1.133,0.383,1.952,0.66,3.653,0.66
		c2.292,0,3.899-0.563,5.37-1.881c2.059-1.819,2.367-4.161,2.367-5.395c0-1.364-0.356-2.598-1.056-3.667
		C36.181,36.343,34.738,35.61,33.465,35.107z"/>
	<linearGradient id="SVGID_6_" gradientUnits="userSpaceOnUse" x1="49.5143" y1="1.744" x2="49.5143" y2="101.869">
		<stop  offset="0" style="stop-color:#4ECECF"/>
		<stop  offset="1" style="stop-color:#4E98CF"/>
	</linearGradient>
	<path style="fill:url(#SVGID_6_);" d="M52.546,29.075l0.682-0.046c0.379-0.023,0.841,0.065,1.047,0.202
		c0.3,0.2,0.452,0.537,0.452,1.003c0,0.681-0.416,1.382-0.783,2c-0.074,0.125-0.145,0.245-0.205,0.35l-1.796,3.071l-4.066-6.625
		h1.892v-1.956H38.844v1.956h1.972l5.955,9.71v7.782h-2.581v1.956h11.172v-1.956h-2.581v-8.035L55,34.67
		c0.661-1.149,2.347-3.79,3.247-4.69c0.513-0.513,0.948-0.798,1.5-0.982l0.438-0.146v-1.777h-7.639V29.075z"/>
	<g>
		<linearGradient id="SVGID_7_" gradientUnits="userSpaceOnUse" x1="50.7565" y1="1.744" x2="50.7565" y2="101.869">
			<stop  offset="0" style="stop-color:#4ECECF"/>
			<stop  offset="1" style="stop-color:#4E98CF"/>
		</linearGradient>
		<path style="fill:url(#SVGID_7_);" d="M50.676,83.68h-0.544v1.709h-1.094V80.86h1.663c0.992,0,1.772,0.357,1.772,1.394
			C52.474,83.304,51.623,83.68,50.676,83.68z M50.613,81.743h-0.48v1.069h0.461c0.409,0,0.787-0.122,0.787-0.551
			C51.38,81.825,51.003,81.743,50.613,81.743z"/>
		<linearGradient id="SVGID_8_" gradientUnits="userSpaceOnUse" x1="55.0064" y1="1.744" x2="55.0064" y2="101.869">
			<stop  offset="0" style="stop-color:#4ECECF"/>
			<stop  offset="1" style="stop-color:#4E98CF"/>
		</linearGradient>
		<path style="fill:url(#SVGID_8_);" d="M56.039,82.037c-0.186-0.236-0.525-0.39-0.806-0.39c-0.281,0-0.633,0.096-0.633,0.455
			c0,0.3,0.269,0.396,0.697,0.53c0.614,0.199,1.407,0.461,1.407,1.362c0,1.042-0.838,1.51-1.733,1.51
			c-0.646,0-1.298-0.236-1.695-0.652l0.717-0.729c0.217,0.275,0.62,0.479,0.978,0.479c0.333,0,0.627-0.127,0.627-0.492
			c0-0.345-0.345-0.454-0.94-0.646c-0.576-0.185-1.158-0.479-1.158-1.297c0-1.005,0.908-1.42,1.753-1.42
			c0.512,0,1.087,0.191,1.484,0.556L56.039,82.037z"/>
		<linearGradient id="SVGID_9_" gradientUnits="userSpaceOnUse" x1="59.5176" y1="1.744" x2="59.5176" y2="101.869">
			<stop  offset="0" style="stop-color:#4ECECF"/>
			<stop  offset="1" style="stop-color:#4E98CF"/>
		</linearGradient>
		<path style="fill:url(#SVGID_9_);" d="M60.045,83.47v1.919h-1.094V83.47l-1.701-2.61h1.324l0.966,1.675l0.966-1.675h1.279
			L60.045,83.47z"/>
		<linearGradient id="SVGID_10_" gradientUnits="userSpaceOnUse" x1="64.3205" y1="1.744" x2="64.3205" y2="101.869">
			<stop  offset="0" style="stop-color:#4ECECF"/>
			<stop  offset="1" style="stop-color:#4E98CF"/>
		</linearGradient>
		<path style="fill:url(#SVGID_10_);" d="M64.659,85.51c-1.394,0-2.437-0.972-2.437-2.392c0-1.451,1.075-2.379,2.456-2.379
			c0.633,0,1.317,0.23,1.695,0.665l-0.742,0.741c-0.204-0.281-0.569-0.415-0.914-0.415c-0.761,0-1.305,0.589-1.305,1.387
			c0,0.825,0.531,1.389,1.286,1.389c0.429,0,0.767-0.192,0.959-0.461l0.761,0.716C66.022,85.223,65.42,85.51,64.659,85.51z"/>
		<linearGradient id="SVGID_11_" gradientUnits="userSpaceOnUse" x1="69.3763" y1="1.744" x2="69.3763" y2="101.869">
			<stop  offset="0" style="stop-color:#4ECECF"/>
			<stop  offset="1" style="stop-color:#4E98CF"/>
		</linearGradient>
		<path style="fill:url(#SVGID_11_);" d="M70.259,85.389v-1.894h-1.766v1.894H67.4V80.86h1.094v1.714h1.766V80.86h1.094v4.529
			H70.259z"/>
		<linearGradient id="SVGID_12_" gradientUnits="userSpaceOnUse" x1="75.0561" y1="1.744" x2="75.0561" y2="101.869">
			<stop  offset="0" style="stop-color:#4ECECF"/>
			<stop  offset="1" style="stop-color:#4E98CF"/>
		</linearGradient>
		<path style="fill:url(#SVGID_12_);" d="M75.053,85.51c-1.413,0-2.462-0.972-2.462-2.405c0-1.452,1.049-2.366,2.462-2.366
			c1.42,0,2.469,0.914,2.469,2.366C77.522,84.538,76.473,85.51,75.053,85.51z M75.053,81.724c-0.767,0-1.292,0.587-1.292,1.381
			c0,0.819,0.531,1.407,1.292,1.407s1.299-0.589,1.299-1.407C76.351,82.312,75.82,81.724,75.053,81.724z"/>
		<linearGradient id="SVGID_13_" gradientUnits="userSpaceOnUse" x1="80.186" y1="1.744" x2="80.186" y2="101.869">
			<stop  offset="0" style="stop-color:#4ECECF"/>
			<stop  offset="1" style="stop-color:#4E98CF"/>
		</linearGradient>
		<path style="fill:url(#SVGID_13_);" d="M78.759,85.389V80.86h1.101v3.575h1.752v0.954H78.759z"/>
		<linearGradient id="SVGID_14_" gradientUnits="userSpaceOnUse" x1="84.7003" y1="1.744" x2="84.7003" y2="101.869">
			<stop  offset="0" style="stop-color:#4ECECF"/>
			<stop  offset="1" style="stop-color:#4E98CF"/>
		</linearGradient>
		<path style="fill:url(#SVGID_14_);" d="M84.697,85.51c-1.414,0-2.463-0.972-2.463-2.405c0-1.452,1.049-2.366,2.463-2.366
			c1.42,0,2.469,0.914,2.469,2.366C87.166,84.538,86.117,85.51,84.697,85.51z M84.697,81.724c-0.768,0-1.292,0.587-1.292,1.381
			c0,0.819,0.531,1.407,1.292,1.407c0.761,0,1.298-0.589,1.298-1.407C85.996,82.312,85.465,81.724,84.697,81.724z"/>
		<linearGradient id="SVGID_15_" gradientUnits="userSpaceOnUse" x1="90.3104" y1="1.744" x2="90.3104" y2="101.869">
			<stop  offset="0" style="stop-color:#4ECECF"/>
			<stop  offset="1" style="stop-color:#4E98CF"/>
		</linearGradient>
		<path style="fill:url(#SVGID_15_);" d="M90.682,85.504c-1.446,0-2.489-0.96-2.489-2.386c0-1.451,1.075-2.379,2.456-2.379
			c0.71,0,1.369,0.236,1.746,0.601l-0.691,0.786c-0.211-0.242-0.576-0.422-1.017-0.422c-0.767,0-1.331,0.601-1.331,1.414
			c0,0.831,0.492,1.426,1.382,1.426c0.256,0,0.492-0.037,0.684-0.121v-0.825H90.56v-0.882h1.868v2.399
			C91.986,85.344,91.379,85.504,90.682,85.504z"/>
		<linearGradient id="SVGID_16_" gradientUnits="userSpaceOnUse" x1="94.3878" y1="1.744" x2="94.3878" y2="101.869">
			<stop  offset="0" style="stop-color:#4ECECF"/>
			<stop  offset="1" style="stop-color:#4E98CF"/>
		</linearGradient>
		<path style="fill:url(#SVGID_16_);" d="M93.838,85.389V80.86h1.1v4.529H93.838z"/>
		<linearGradient id="SVGID_17_" gradientUnits="userSpaceOnUse" x1="98.2715" y1="1.744" x2="98.2715" y2="101.869">
			<stop  offset="0" style="stop-color:#4ECECF"/>
			<stop  offset="1" style="stop-color:#4E98CF"/>
		</linearGradient>
		<path style="fill:url(#SVGID_17_);" d="M98.611,85.51c-1.394,0-2.437-0.972-2.437-2.392c0-1.451,1.075-2.379,2.456-2.379
			c0.634,0,1.318,0.23,1.695,0.665l-0.742,0.741c-0.204-0.281-0.569-0.415-0.914-0.415c-0.761,0-1.305,0.589-1.305,1.387
			c0,0.825,0.531,1.389,1.286,1.389c0.429,0,0.767-0.192,0.959-0.461l0.761,0.716C99.973,85.223,99.372,85.51,98.611,85.51z"/>
		<linearGradient id="SVGID_18_" gradientUnits="userSpaceOnUse" x1="103.1385" y1="1.744" x2="103.1385" y2="101.869">
			<stop  offset="0" style="stop-color:#4ECECF"/>
			<stop  offset="1" style="stop-color:#4E98CF"/>
		</linearGradient>
		<path style="fill:url(#SVGID_18_);" d="M104.344,85.389l-0.352-0.89h-1.752l-0.333,0.89h-1.189l1.899-4.529h1.062l1.881,4.529
			H104.344z M103.129,82.069l-0.576,1.554h1.139L103.129,82.069z"/>
		<linearGradient id="SVGID_19_" gradientUnits="userSpaceOnUse" x1="107.8778" y1="1.744" x2="107.8778" y2="101.869">
			<stop  offset="0" style="stop-color:#4ECECF"/>
			<stop  offset="1" style="stop-color:#4E98CF"/>
		</linearGradient>
		<path style="fill:url(#SVGID_19_);" d="M106.451,85.389V80.86h1.1v3.575h1.753v0.954H106.451z"/>
	</g>
	<g>
		<linearGradient id="SVGID_20_" gradientUnits="userSpaceOnUse" x1="64.8327" y1="1.744" x2="64.8327" y2="101.869">
			<stop  offset="0" style="stop-color:#4ECECF"/>
			<stop  offset="1" style="stop-color:#4E98CF"/>
		</linearGradient>
		<path style="fill:url(#SVGID_20_);" d="M65.172,93.069c-1.394,0-2.437-0.971-2.437-2.391c0-1.452,1.074-2.38,2.456-2.38
			c0.633,0,1.317,0.23,1.695,0.665l-0.742,0.742c-0.205-0.281-0.569-0.416-0.915-0.416c-0.761,0-1.305,0.589-1.305,1.389
			c0,0.825,0.531,1.387,1.286,1.387c0.429,0,0.767-0.191,0.959-0.46l0.761,0.716C66.534,92.781,65.933,93.069,65.172,93.069z"/>
		<linearGradient id="SVGID_21_" gradientUnits="userSpaceOnUse" x1="70.09" y1="1.744" x2="70.09" y2="101.869">
			<stop  offset="0" style="stop-color:#4ECECF"/>
			<stop  offset="1" style="stop-color:#4E98CF"/>
		</linearGradient>
		<path style="fill:url(#SVGID_21_);" d="M70.087,93.069c-1.413,0-2.462-0.971-2.462-2.405c0-1.451,1.049-2.366,2.462-2.366
			c1.42,0,2.469,0.915,2.469,2.366C72.556,92.098,71.507,93.069,70.087,93.069z M70.087,89.283c-0.767,0-1.292,0.589-1.292,1.381
			c0,0.819,0.531,1.407,1.292,1.407s1.299-0.589,1.299-1.407C71.385,89.871,70.854,89.283,70.087,89.283z"/>
		<linearGradient id="SVGID_22_" gradientUnits="userSpaceOnUse" x1="75.6902" y1="1.744" x2="75.6902" y2="101.869">
			<stop  offset="0" style="stop-color:#4ECECF"/>
			<stop  offset="1" style="stop-color:#4E98CF"/>
		</linearGradient>
		<path style="fill:url(#SVGID_22_);" d="M75.681,93.069c-1.19,0-1.932-0.741-1.932-1.829v-2.821h1.087v2.731
			c0,0.486,0.236,0.934,0.851,0.934c0.62,0,0.851-0.447,0.851-0.934v-2.731h1.094v2.821C77.631,92.328,76.864,93.069,75.681,93.069z
			"/>
		<linearGradient id="SVGID_23_" gradientUnits="userSpaceOnUse" x1="81.0882" y1="1.744" x2="81.0882" y2="101.869">
			<stop  offset="0" style="stop-color:#4ECECF"/>
			<stop  offset="1" style="stop-color:#4E98CF"/>
		</linearGradient>
		<path style="fill:url(#SVGID_23_);" d="M81.907,92.948l-1.823-2.961h-0.019l0.026,2.961h-1.062v-4.529h1.247l1.817,2.955h0.019
			l-0.026-2.955h1.062v4.529H81.907z"/>
		<linearGradient id="SVGID_24_" gradientUnits="userSpaceOnUse" x1="85.9555" y1="1.744" x2="85.9555" y2="101.869">
			<stop  offset="0" style="stop-color:#4ECECF"/>
			<stop  offset="1" style="stop-color:#4E98CF"/>
		</linearGradient>
		<path style="fill:url(#SVGID_24_);" d="M86.989,89.596c-0.186-0.236-0.524-0.39-0.806-0.39c-0.281,0-0.633,0.095-0.633,0.454
			c0,0.301,0.269,0.396,0.697,0.531c0.614,0.197,1.407,0.46,1.407,1.362c0,1.042-0.838,1.509-1.733,1.509
			c-0.646,0-1.299-0.236-1.695-0.652l0.716-0.729c0.217,0.275,0.62,0.48,0.979,0.48c0.332,0,0.627-0.129,0.627-0.492
			c0-0.346-0.346-0.455-0.941-0.646c-0.576-0.185-1.157-0.48-1.157-1.299c0-1.004,0.908-1.42,1.752-1.42
			c0.512,0,1.087,0.192,1.484,0.556L86.989,89.596z"/>
		<linearGradient id="SVGID_25_" gradientUnits="userSpaceOnUse" x1="90.4704" y1="1.744" x2="90.4704" y2="101.869">
			<stop  offset="0" style="stop-color:#4ECECF"/>
			<stop  offset="1" style="stop-color:#4E98CF"/>
		</linearGradient>
		<path style="fill:url(#SVGID_25_);" d="M88.89,92.948v-4.529h3.045v0.927h-1.989v0.851h1.881v0.876h-1.881v0.94h2.104v0.934H88.89
			z"/>
		<linearGradient id="SVGID_26_" gradientUnits="userSpaceOnUse" x1="94.7137" y1="1.744" x2="94.7137" y2="101.869">
			<stop  offset="0" style="stop-color:#4ECECF"/>
			<stop  offset="1" style="stop-color:#4E98CF"/>
		</linearGradient>
		<path style="fill:url(#SVGID_26_);" d="M93.287,92.948v-4.529h1.1v3.576h1.753v0.952H93.287z"/>
		<linearGradient id="SVGID_27_" gradientUnits="userSpaceOnUse" x1="97.7152" y1="1.744" x2="97.7152" y2="101.869">
			<stop  offset="0" style="stop-color:#4ECECF"/>
			<stop  offset="1" style="stop-color:#4E98CF"/>
		</linearGradient>
		<path style="fill:url(#SVGID_27_);" d="M97.165,92.948v-4.529h1.1v4.529H97.165z"/>
		<linearGradient id="SVGID_28_" gradientUnits="userSpaceOnUse" x1="101.7723" y1="1.744" x2="101.7723" y2="101.869">
			<stop  offset="0" style="stop-color:#4ECECF"/>
			<stop  offset="1" style="stop-color:#4E98CF"/>
		</linearGradient>
		<path style="fill:url(#SVGID_28_);" d="M102.591,92.948l-1.823-2.961h-0.019l0.026,2.961h-1.062v-4.529h1.247l1.816,2.955h0.019
			l-0.026-2.955h1.062v4.529H102.591z"/>
		<linearGradient id="SVGID_29_" gradientUnits="userSpaceOnUse" x1="107.1869" y1="1.744" x2="107.1869" y2="101.869">
			<stop  offset="0" style="stop-color:#4ECECF"/>
			<stop  offset="1" style="stop-color:#4E98CF"/>
		</linearGradient>
		<path style="fill:url(#SVGID_29_);" d="M107.558,93.063c-1.446,0-2.489-0.959-2.489-2.385c0-1.452,1.075-2.38,2.456-2.38
			c0.71,0,1.369,0.236,1.746,0.601l-0.691,0.786c-0.211-0.242-0.576-0.421-1.017-0.421c-0.767,0-1.331,0.601-1.331,1.414
			c0,0.831,0.492,1.426,1.382,1.426c0.256,0,0.492-0.039,0.684-0.121v-0.826h-0.864v-0.882h1.868v2.399
			C108.862,92.903,108.255,93.063,107.558,93.063z"/>
	</g>
	<linearGradient id="SVGID_30_" gradientUnits="userSpaceOnUse" x1="75.5239" y1="1.744" x2="75.5239" y2="101.869">
		<stop  offset="0" style="stop-color:#4ECECF"/>
		<stop  offset="1" style="stop-color:#4E98CF"/>
	</linearGradient>
	<path style="fill:url(#SVGID_30_);" d="M79.931,53.926l-4.323,11.769l-4.434-11.769h-8.548v1.956h0.64
		c0.372,0,1.197,0.115,1.497,0.379c0.226,0.213,0.351,0.648,0.351,1.224v12.473c0,1.242-0.218,2.291-0.566,2.734
		c-0.235,0.294-0.799,0.632-1.484,0.684l-0.592,0.044v1.909h7.117v-1.956h-0.64c-0.827,0-1.198-0.43-1.305-0.579
		c-0.329-0.431-0.482-1.292-0.482-2.714V59.794l5.703,15.534h1.509l5.64-15.503v13.548h-2.581v1.956h11.142v-1.956h-2.55V55.882
		h2.55v-1.956H79.931z"/>
	<linearGradient id="SVGID_31_" gradientUnits="userSpaceOnUse" x1="100.007" y1="1.744" x2="100.007" y2="101.869">
		<stop  offset="0" style="stop-color:#4ECECF"/>
		<stop  offset="1" style="stop-color:#4E98CF"/>
	</linearGradient>
	<path style="fill:url(#SVGID_31_);" d="M109.282,67.382h-1.236l-0.074,0.555c-0.148,1.111-0.656,2.178-1.514,3.175
		c-1.265,1.501-2.909,2.261-4.887,2.261h-2.247v-8.767h1.387c1.187,0,1.937,0.682,2.216,1.261c0.165,0.35,0.304,1.109,0.339,1.847
		l0.029,0.61h2.111v-9.329h-2.14v0.64c0,0.576-0.118,1.129-0.339,1.573c-0.202,0.434-0.824,1.443-2.216,1.443h-1.387v-6.769h2.278
		c2.781,0,4.139,1.332,4.674,2.084l0.037,0.061c0.696,1.101,0.987,2.286,1.108,3.086l0.082,0.544h1.779v-7.731H90.732v1.956h2.581
		v17.491h-2.581v1.956h18.551V67.382z"/>
	<g>
		<g>
			<linearGradient id="SVGID_32_" gradientUnits="userSpaceOnUse" x1="85.9988" y1="1.744" x2="85.9988" y2="101.869">
				<stop  offset="0" style="stop-color:#4ECECF"/>
				<stop  offset="1" style="stop-color:#4E98CF"/>
			</linearGradient>
			<path style="fill:url(#SVGID_32_);" d="M98.757,25.417c0,4.258-5.967,6.905-13.437,7.473c-8.164,0.621-11.286-2.191-12.026-8.23
				c-0.519-4.237,2.713-9.306,10.052-8.05C92.83,18.232,98.757,21.158,98.757,25.417z"/>
			<linearGradient id="SVGID_33_" gradientUnits="userSpaceOnUse" x1="87.6855" y1="1.744" x2="87.6855" y2="101.869">
				<stop  offset="0" style="stop-color:#4ECECF"/>
				<stop  offset="1" style="stop-color:#4E98CF"/>
			</linearGradient>
			<path style="fill:url(#SVGID_33_);" d="M79.749,34.971c7.706-1.47,27.571-4.513,29.478,4.248
				c2.642,12.133-39.104,9.545-42.626,5.804C64.486,42.776,68.043,37.205,79.749,34.971z"/>
			<linearGradient id="SVGID_34_" gradientUnits="userSpaceOnUse" x1="88.5806" y1="1.744" x2="88.5806" y2="101.869">
				<stop  offset="0" style="stop-color:#4ECECF"/>
				<stop  offset="1" style="stop-color:#4E98CF"/>
			</linearGradient>
			<path style="fill:url(#SVGID_34_);" d="M94.573,10.575c-5.818-0.563-20.817-1.728-22.257,1.626
				c-1.994,4.646,29.525,3.654,32.184,2.222C106.097,13.564,103.412,11.43,94.573,10.575z"/>
			<linearGradient id="SVGID_35_" gradientUnits="userSpaceOnUse" x1="83.4377" y1="1.744" x2="83.4377" y2="101.869">
				<stop  offset="0" style="stop-color:#4ECECF"/>
				<stop  offset="1" style="stop-color:#4E98CF"/>
			</linearGradient>
			<path style="fill:url(#SVGID_35_);" d="M77.043,6.534c-0.668-2.079,1.83-4.306,5.388-5.754c3.888-1.583,5.853-0.7,7.16,2.133
				c0.917,1.987,0.134,4.968-3.645,5.505C81.062,9.112,77.711,8.613,77.043,6.534z"/>
		</g>
	</g>
</g>
<image style="overflow:visible;" width="448" height="392" xlink:href="FE0BB480.jpg"  transform="matrix(1 0 0 1 -8082.6533 -8122.3452)">
</image>
<image style="overflow:visible;" width="448" height="392" xlink:href="FE0BB481.jpg"  transform="matrix(1 0 0 1 -8082.6533 -8122.3452)">
</image>
</svg>
